<?xml version="1.0" encoding="utf-8"?>
<!-- Generator: Adobe Illustrator 27.0.0, SVG Export Plug-In . SVG Version: 6.00 Build 0)  -->
<svg version="1.1" id="Layer_1" xmlns="http://www.w3.org/2000/svg" xmlns:xlink="http://www.w3.org/1999/xlink" x="0px" y="0px"
	 viewBox="0 0 576 177.4" style="enable-background:new 0 0 576 177.4;" xml:space="preserve">
<style type="text/css">
	.st0{fill:#F9763D;}
	.st1{fill:#00549A;}
	.st2{fill:#FFFFFF;}
	.st3{fill:#04559A;}
	.st4{fill:#04559A;stroke:#04559A;stroke-miterlimit:10;}
	.st5{fill:#231F20;}
</style>
<g>
	<path class="st2" d="M55.3,81.1c0-13.8-10-22.2-24-22.2H12.7v44.4h18.7C45.3,103.3,55.3,94.8,55.3,81.1z M24.1,93.3V68.9h7.3
		c8.1,0,12.2,5.3,12.2,12.2c0,6.6-4.5,12.2-12.3,12.2H24.1z"/>
	<polygon class="st2" points="89.4,75.4 89.4,66.7 60.7,66.7 60.7,103.3 89.4,103.3 89.4,94.6 71.3,94.6 71.3,89.1 89,89.1 89,80.4 
		71.3,80.4 71.3,75.4 	"/>
	<polygon class="st2" points="139.4,103.3 139.4,66.7 125.3,66.7 117.4,87.3 109.3,66.7 95.3,66.7 95.3,103.3 105.9,103.3 
		105.9,80.5 114.9,103.3 119.8,103.3 128.8,80.5 128.8,103.3 	"/>
	<path class="st2" d="M156.5,66.7l-14.6,36.6h11.4l2-5.5h15.1l2,5.5h11.4l-14.5-36.6H156.5z M158.2,89.1l4.7-13.3l4.7,13.3H158.2z"
		/>
	<polygon class="st2" points="212,88.3 197.9,66.7 186.4,66.7 186.4,103.3 196.9,103.3 196.9,80.7 211.7,103.3 222.6,103.3 
		222.6,66.7 212,66.7 	"/>
	<path class="st2" d="M229.2,66.7v36.6h16.5c12.2,0,20.2-7,20.2-18.3c0-11.4-8-18.3-20.2-18.3H229.2z M255.1,85
		c0,4.9-3.1,9.1-9.5,9.1h-5.8V75.9h5.9C252.5,75.9,255.1,79.9,255.1,85z"/>
	<path class="st2" d="M292.9,104.1c8.4,0,14.8-3.4,19.6-8.6V78.1h-21.4v9.5h10.2v3.7c-1.8,1.5-4.9,2.7-8.4,2.7
		c-7.3,0-12.4-5.6-12.4-12.8s5.1-12.8,12.4-12.8c4.2,0,7.6,2.3,9.4,5.3l9.6-5.1c-3.3-5.5-9.2-10.3-19-10.3c-13.2,0-24,8.8-24,23
		C268.8,95.2,279.6,104.1,292.9,104.1z"/>
	<polygon class="st2" points="347.7,94.6 329.6,94.6 329.6,89.1 347.3,89.1 347.3,80.4 329.6,80.4 329.6,75.4 347.7,75.4 
		347.7,66.7 319,66.7 319,103.3 347.7,103.3 	"/>
	<polygon class="st2" points="364.2,80.7 378.9,103.3 389.8,103.3 389.8,66.7 379.2,66.7 379.2,88.3 365.1,66.7 353.6,66.7 
		353.6,103.3 364.2,103.3 	"/>
	<polygon class="st2" points="96.9,35.3 103.7,51 105,51 111.8,35.3 111.8,51 113.7,51 113.7,33.4 110.9,33.4 104.4,48.2 97.9,33.4 
		95.1,33.4 95.1,51 96.9,51 	"/>
	<path class="st2" d="M123,51.4c2.3,0,4.2-1.1,5.2-3V51h1.8V38.2h-1.8v2.7c-0.6-1.5-2.5-3.1-5.2-3.1c-3.9,0-6.6,3-6.6,6.8
		C116.3,48.1,118.8,51.4,123,51.4z M118.1,44.6c0-2.9,2.1-5.1,5.1-5.1c2.3,0,4,1.3,4.7,3.1c0.3,0.6,0.4,1.3,0.4,2
		c0,0.7-0.1,1.4-0.4,2c-0.7,1.8-2.4,3.1-4.6,3.1C119.7,49.7,118.1,46.9,118.1,44.6L118.1,44.6z"/>
	<path class="st2" d="M135.2,44c0-2.9,1.4-4.5,3.9-4.5h0.2v-1.7c-1.5,0-3.2,0.5-4.1,2.5v-2.1h-1.7V51h1.7V44z"/>
	<polygon class="st2" points="142.9,44.2 149.1,51 151.1,51 144.7,43.8 150.8,38.2 148.7,38.2 142.9,43.5 142.9,33.4 141.1,33.4 
		141.1,51 142.9,51 	"/>
	<path class="st2" d="M158.1,51.4c1.3,0,2.6-0.4,3.6-1c1.1-0.7,2-1.7,2.6-3.1h-1.8c-0.8,1.7-2.4,2.6-4.4,2.6c-2.2,0-4.9-1.5-5-4.7
		h11.7c0.2-2-0.5-4-2-5.5c-1.2-1.2-2.9-1.8-4.7-1.8c-3.8,0-6.7,3-6.7,6.8C151.3,47.8,153.7,51.4,158.1,51.4z M158.1,39.3
		c2.6-0.1,4.8,2.1,4.9,4.4h-9.9C153.3,41.4,155.4,39.3,158.1,39.3z"/>
	<polygon class="st2" points="168.3,51 170,51 170,39.6 172.8,39.6 172.8,38.2 170,38.2 170,33.4 168.3,33.4 168.3,38.2 165.8,38.2 
		165.8,39.6 168.3,39.6 	"/>
	<rect x="174.8" y="38.2" class="st2" width="1.8" height="12.8"/>
	<rect x="174.8" y="33.4" class="st2" width="1.8" height="2.5"/>
	<path class="st2" d="M181.7,43.8c0-2.7,1.5-4.3,4.2-4.3c2.9,0,4.1,1.8,4.1,4.6V51h1.7v-7.3c0-3.1-1.4-5.8-5.4-5.9
		c-2.3,0-4,1-4.8,2.6c0-0.9,0-1.6,0-2.3H180V51h1.8V43.8z"/>
	<path class="st2" d="M201.1,51.4c2.5,0,4.3-1.3,5.2-3.1v1.6c0,3.2-2.5,5.1-5,5.1c-0.8,0-1.9-0.3-2.8-0.9c-0.8-0.5-1.2-1.1-1.5-1.7
		h-2c0.8,2.3,3.1,4.1,6.3,4.1c1.7,0,3.6-0.7,4.9-2c1.1-1.1,1.9-2.6,1.9-5.1V38.2h-1.7v2.6c-0.7-1.6-2.7-3-5.2-3
		c-3.9,0-6.7,3-6.7,6.8C194.4,48.3,197.1,51.4,201.1,51.4z M196.1,44.6c0-3,2.3-5.1,5.1-5.1c1.8,0,3.1,0.8,3.9,1.8
		c0.8,1,1.2,2.3,1.2,3.4c0,1.4-0.5,2.7-1.4,3.6c-0.9,0.9-2.1,1.5-3.6,1.5C198,49.7,196.1,47.2,196.1,44.6L196.1,44.6z"/>
	<path class="st2" d="M213.3,44.1h2.8c2.3,0,3.5-0.3,4.6-1.2c1.1-0.8,1.8-2.5,1.8-4.2c0-1.6-0.7-3.3-1.9-4.2
		c-1.1-0.8-2.3-1.1-4.7-1.1h-4.6V51h2V44.1z M213.3,35.1h2.8c1.5,0,2.4,0.2,3.3,0.7c0.8,0.5,1.3,1.6,1.3,2.9c0,1.2-0.5,2.4-1.3,2.9
		c-0.9,0.6-1.8,0.7-3.3,0.7h-2.8V35.1z"/>
	<path class="st2" d="M226.3,44c0-2.9,1.4-4.5,3.9-4.5h0.2v-1.7c-1.5,0-3.2,0.5-4.1,2.5v-2.1h-1.7V51h1.7V44z"/>
	<path class="st2" d="M237.2,51.4c4.1,0,6.8-3.1,6.8-6.7c0-3.6-2.7-6.8-6.8-6.8c-4.1,0-6.8,3.2-6.8,6.7v0
		C230.4,48.2,233.1,51.4,237.2,51.4z M232.2,44.6c0-2.9,2.2-5.1,5.1-5.1c2.9,0,5.1,2.2,5.1,5.1c0,2.9-2.2,5.1-5.1,5.1
		C234.4,49.7,232.2,47.5,232.2,44.6L232.2,44.6z"/>
	<path class="st2" d="M247,51h1.7V39.6h2.8v-1.4h-2.8v-0.9c0-2.8,1.9-2.8,2.8-2.8v-1.4c-1.4,0-4.5,0.1-4.5,4.1v1h-1.9v1.4h1.9V51z"
		/>
	<path class="st2" d="M257,49.9c-1.3,0-2.6-0.8-2.7-2.5h-1.7c0,2.7,2.3,4,4.4,4c2.4,0,4.3-1.7,4.2-4.1c-0.1-2.7-2.1-3.3-4-3.8
		c-1.5-0.5-2.5-1-2.5-2.2c0-1.1,0.8-2.1,2.2-2.1c1.3,0,2.2,0.8,2.2,2.1h1.7c-0.1-2.6-2.1-3.6-3.9-3.6c-2.2,0-4,1.4-4,3.7
		c0,2,1.5,2.8,3.3,3.3c2.2,0.6,3.2,1.2,3.2,2.7C259.5,48.8,258.5,49.9,257,49.9z"/>
	<path class="st2" d="M69.5,56.3c0.4,0.1,0.9,0.2,1.3,0.2v-4.7c-0.6,0-1.1-0.1-1.3-0.2V56.3z"/>
	<path class="st2" d="M68.3,56v-4.7c-1.9-0.7-3.5-2-4.6-3.9c-1.2-2.1-1.5-4.5-0.9-6.7l0,0l0.8-3.1l-3.1-0.8l2.7-0.8L61,33.6
		c-1.8,2.4-2.9,5.4-2.9,8.6C58.1,48.7,62.4,54.2,68.3,56z"/>
	<path class="st2" d="M81.7,53.3c3.2-2.6,5.2-6.6,5.2-11.1c0-0.6,0-1.1-0.1-1.7l-9.2,7.9L81.7,53.3z"/>
	<path class="st2" d="M74.1,51.4c-0.7,0.3-1.4,0.4-2.1,0.4v4.8c0.1,0,0.3,0,0.4,0c3.4,0,6.5-1.2,9-3.1L74.1,51.4L74.1,51.4z"/>
	<path class="st2" d="M64.5,34.4c1-3.7,9.7-2,9.7-2s-5.7,5.1-2.7,8.6l4,4.8l5-7.5h5.8c-1.7-6.1-7.3-10.5-13.9-10.5
		c-4.7,0-8.8,2.2-11.4,5.7L64.5,34.4L64.5,34.4z"/>
	<path class="st2" d="M72.5,59.5c9.5,0,17.3-7.7,17.3-17.3S82,24.9,72.5,24.9s-17.3,7.7-17.3,17.3S62.9,59.5,72.5,59.5z M72.5,25.9
		c9,0,16.2,7.3,16.2,16.2s-7.3,16.2-16.2,16.2s-16.2-7.3-16.2-16.2S63.5,25.9,72.5,25.9z"/>
	<path class="st2" d="M66.1,35c0,0.4,0.3,0.7,0.7,0.7c0.4,0,0.7-0.3,0.7-0.7s-0.3-0.7-0.7-0.7C66.4,34.3,66.1,34.6,66.1,35z"/>
	<path class="st2" d="M12.7,112.3v18h470c2.1-6.7,5.5-12.6,13.3-18H12.7z"/>
	<path class="st2" d="M557.1,76.2c-6.7,4.7-13.6,9.2-20.4,13.7c-3.7,2.4-7.4,4.7-11.8,7.5c1.4-7,2.6-13.1,3.8-19.3
		c0.4-1.8,0.8-3.7,0.4-5.6c-0.7-3.9-2.6-4.6-5.5-2c-2.4,2.2-4.4,4.9-6.4,7.5c-4.9,6.4-9.7,12.9-17.5,16.8c0.2-0.9,0.2-1.5,0.4-2
		c1.3-4.7,3.1-9.3,5.2-13.8c0.8-1.8,0.5-3.2-1-4.4c-1.8-1.4-2.8,0.1-3.8,1.1c-0.2,0.2-0.4,0.4-0.6,0.7c-5.6,6.6-10.8,13.5-18.9,17.1
		c-0.2,0.1-0.4,0.2-0.6,0.2c0-0.3,0-0.6-0.1-0.9c0.7-2.3,1.2-4.7,2-7c1.1-2.9,2.6-5.7,3.8-8.6c0.6-1.5,0.7-3.2-0.7-4.1
		c-1.4-0.9-3.2-0.8-4.2,1c-2.8,6.6-7.2,12.1-12.3,17.1c-0.8,0.8-2.1,1.8-3.1,1.2c-1.2-0.8-0.1-2.1,0.3-3.1
		c2.6-5.6,5.8-10.7,11.9-13.1c1-0.4,1.7-1.1,2.1-2.2c-0.8-3.5-2.1-4.4-5.1-2.7c-8,4.3-12.4,11.2-13.6,20.2c-0.3,2.1,0.5,3.8,2.4,5.1
		c2.1,1.4,3.7,0.3,5.2-0.7c2-1.3,3.7-3,6-4.8c0.1,1.1,0.1,1.7,0.1,2.4c0,4.7,2,6.2,6.5,4.6c4-1.5,7.3-4.2,10.4-7.1
		c1.5-1.4,2.8-3,5-4.1c-0.7,2.5-1.4,4.4-1.7,6.5c-0.3,1.9-0.9,4.2,0.9,5.6c2,1.6,4,0.5,5.9-0.6c6.1-3.3,10.9-8,15-13.6
		c2-2.8,4.1-5.5,7.1-8.2c-1.5,7.8-2.9,14.9-4.1,22c-0.3,2.1-1.3,3.3-3,4.4c-8.1,5.5-15.3,12.1-21.1,20c-8.5,11.6-9.1,19.4-2.1,28.5
		c1.1,2.1,4.3,1.8,5.3,1.8c2.8-0.8,5-2.4,6.8-4.6c3.9-4.6,7.1-9.6,9.3-15.1c3.2-7.8,5.5-15.9,7.1-24.2c0.5-2.7,0.8-5.8,3.5-7.3
		c6.9-3.7,13-8.7,19.8-12.5c5.3-3,10-7.3,16.3-8.6l0.2-3.5C560.7,76.9,559.6,74.4,557.1,76.2z M514.3,124.9
		c-2.5,8-6.3,15.4-12.3,21.3c-1.6,1.6-3.3,3.8-6,2.5c-2.8-1.3-3.3-3.9-3.2-6.8c0.1-3.5,1.1-6.6,2.8-9.7c5.6-9.7,13.6-17,23.2-24.4
		C517.1,114.2,515.9,119.7,514.3,124.9z"/>
	<path class="st2" d="M453,66.9c-8.2,3.5-16.7,5.3-25.3,6.9c-1.2,0.2-1.6,0.3-1.9-1c-0.6-3-2-2.4-3.9-0.9
		c-6.7,5.5-10.3,12.7-11.7,21c-0.3,2,0.2,4,1.1,5.8c1,2.1,2.6,3.1,5.1,2.3c2-0.7,3.6-1.6,4.8-3.3c3.6-4.9,5.7-10.2,4.7-16.4
		c-0.2-1-0.8-2.1,0.9-2.4c4.8-0.9,9.7-1.9,15.2-3c-0.9,1.5-1.5,2.3-2,3.2c-2.3,4.4-4.6,8.7-4.7,13.8c-0.1,2.4,1,4.6,3,5.6
		c1.7,0.9,3.3-0.7,4.7-1.8c1.1-0.9,2.1-1.9,2.9-3c1.9-2.5,3.7-5.1,5.9-8.1c0.4,1.8,0,2.9-0.2,4c-0.6,3.3-1.2,6.7-1.8,10
		c-0.4,2,0.6,3.3,2.1,4.5c1.1,0.8,1.8,0.1,2.4-0.6c1.3-1.3,1.9-2.8,0.9-4.4c-0.9-1.5-0.6-2.9-0.3-4.4c2.3-12.7,5.7-25.1,10.2-37.2
		c0.6-1.6,1.3-3.3,1.5-5c0.3-1.7-0.6-3.1-2.3-3.4c-1.7-0.3-2.1,1.1-2.5,2.3c-0.9,2.7-1.7,5.3-2.7,8C458,62.6,457.2,65,453,66.9z
		 M415.6,96.3c-1.8,0.6-2.2,0-2.1-2.1c0.6-5.8,3.2-10,6.4-14c1.1-1.3,1.5-0.5,2,0.3C424,84.3,419.7,95.1,415.6,96.3z M439.1,93.6
		c-0.4-7.3,7-17.8,14.9-21.3C449.7,80.1,446.6,88.1,439.1,93.6z"/>
	<path class="st2" d="M372.9,63.7c1.6,1.3,3,0.2,4-0.5l0.3-0.2c8.1-5.9,17.3-11.2,29.7-17c-3.9,18.2-5.6,34.4-6.8,53
		c-0.1,0.8-0.1,1.4-0.2,2c-0.1,1.2-0.2,2.1-0.1,4c0,0.9,0.3,2,1.1,2.6c0.4,0.3,0.8,0.4,1.2,0.4c0.2,0,0.3,0,0.5-0.1
		c0.9-0.2,1.7-0.8,2.1-1.6c0.4-0.8,0.5-1.7,0.1-2.6c-0.5-1.2-0.5-1.2-0.4-1.8c0-0.2,0-0.5,0.1-0.9c0.2-6.6,0.4-10.5,1.1-16.3
		c0.3-2.8,0.6-5.7,0.9-8.5c0.8-7.7,1.6-15.7,3.1-23.5c1.4-7,4.5-10.5,11.4-12.9c2.5-0.9,5.1-1.8,7.6-2.8c8.2-3.1,16.6-6.3,25.6-6.8
		c0.8-0.1,1.5-0.4,1.9-0.9c0.5-0.6,0.7-1.4,0.7-2.3c-0.2-2.1-1.4-3.4-3.2-3.4c-1.5,0-3.1,0.3-4.5,0.6c-18.6,4.2-35.5,12.2-51.3,20.1
		c-5.8,2.9-11.4,6.3-16.8,9.6c-2.5,1.5-5,3.1-7.6,4.5c-0.5,0.3-1.2,0.8-1.4,1.8C371.8,61.3,371.7,62.7,372.9,63.7z"/>
</g>
</svg>
