<?xml version="1.0" encoding="utf-8"?>
<!-- Generator: Adobe Illustrator 27.0.0, SVG Export Plug-In . SVG Version: 6.00 Build 0)  -->
<svg version="1.1" id="icons" xmlns="http://www.w3.org/2000/svg" xmlns:xlink="http://www.w3.org/1999/xlink" x="0px" y="0px"
	 viewBox="0 0 462.8 555.7" style="enable-background:new 0 0 462.8 555.7;" xml:space="preserve">
<style type="text/css">
	.st0{opacity:0.2;}
	.st1{fill:#FFFFFF;}
</style>
<g id="demand_gen" class="st0">
	<path class="st1" d="M2.7,370.4c-0.4-0.2-0.5-0.6-0.4-1c8-17.6,28.8-25.4,46.4-17.4c5,2.3,9.5,5.8,12.9,10.1
		c8.3-16.9,28.7-24.2,46-16.4c8.7,4,15.4,11.3,18.5,20.3c9.9-12.4,27.3-16.6,41.8-9.9c0.4,0.2,0.5,0.6,0.4,1c-0.2,0.4-0.6,0.5-1,0.4
		c-14.4-6.5-31.6-2.1-40.9,10.6c-0.2,0.2-0.5,0.3-0.7,0.3c-0.3,0-0.5-0.3-0.6-0.5c-2.8-9.2-9.4-16.8-18.2-20.7
		c-16.8-7.7-36.8-0.2-44.4,16.6c-0.1,0.2-0.4,0.5-0.6,0.5c-0.3,0-0.6,0-0.7-0.2c-3.4-4.6-7.9-8.2-13.1-10.6
		c-16.8-7.7-36.8-0.2-44.4,16.6C3.5,370.4,3.1,370.6,2.7,370.4z"/>
	<path class="st1" d="M409.6,555.6c-0.4-0.2-0.5-0.6-0.4-1c7.7-16.8,0.2-36.8-16.6-44.4c-5.2-2.4-10.9-3.4-16.6-2.9
		c-0.3,0-0.5-0.1-0.7-0.3c-0.2-0.2-0.2-0.5-0.1-0.7l0.7,0.2l0,0l-0.6-0.3c7.7-16.8,0.2-36.8-16.6-44.4c-8.7-4-18.8-4-27.6-0.1
		c-0.3,0.1-0.6,0.1-0.8-0.1c-0.2-0.2-0.3-0.5-0.3-0.7c3.4-15.4-4.5-31.3-18.9-37.8c-0.4-0.2-0.5-0.6-0.4-1c0.2-0.4,0.6-0.5,1-0.4
		c14.6,6.6,22.8,22.5,20,38.1c8.9-3.5,18.8-3.3,27.5,0.7c17.3,7.9,25.1,28.1,17.8,45.4c5.5-0.2,11,0.8,16,3.1
		c17.6,8,25.4,28.8,17.4,46.4C410.4,555.6,410,555.8,409.6,555.6L409.6,555.6z"/>
	<path class="st1" d="M32.8,326c-3.5-1.6-5.1-5.7-3.5-9.3c1.6-3.5,5.7-5.1,9.3-3.5c3.5,1.6,5.1,5.7,3.5,9.3
		C40.5,326.1,36.4,327.6,32.8,326z M38,314.7c-2.8-1.3-6,0-7.3,2.7c-1.3,2.8,0,6,2.7,7.3c2.8,1.3,6,0,7.3-2.7
		C42,319.2,40.8,315.9,38,314.7z"/>
	<path class="st1" d="M101.3,326.3c-3.5-1.6-5.1-5.7-3.5-9.3c1.6-3.5,5.7-5.1,9.3-3.5s5.1,5.7,3.5,9.3
		C108.9,326.4,104.8,327.9,101.3,326.3z M106.4,315c-2.8-1.3-6,0-7.3,2.7c-1.3,2.8,0,6,2.7,7.3c2.8,1.3,6,0,7.3-2.7
		C110.4,319.5,109.2,316.2,106.4,315z"/>
	<path class="st1" d="M369.1,448.1c-6.6-3-9.6-10.9-6.6-17.5c3-6.6,10.9-9.6,17.5-6.6c6.6,3,9.6,10.9,6.6,17.5
		C383.6,448.2,375.7,451.2,369.1,448.1z M379.4,425.4c-5.9-2.7-12.9-0.1-15.5,5.8c-2.7,5.9-0.1,12.9,5.8,15.5
		c5.9,2.7,12.9,0.1,15.5-5.8C387.9,435.1,385.3,428.1,379.4,425.4z"/>
	<path class="st1" d="M416.3,480c-4.6-2.1-6.6-7.5-4.5-12c2.1-4.6,7.5-6.6,12-4.5s6.6,7.5,4.5,12S420.8,482.1,416.3,480z
		 M423.2,464.9c-3.8-1.7-8.3-0.1-10,3.8c-1.7,3.8-0.1,8.3,3.8,10c3.8,1.7,8.3,0.1,10-3.8C428.7,471.1,427,466.6,423.2,464.9z"/>
	<g>
		<path class="st1" d="M414.4,426.5l-76.9-35c-0.4-0.2-0.5-0.6-0.4-1c0.2-0.4,0.6-0.5,1-0.4l76.2,34.7l31.7-69.7l-41.4-110.5
			c-0.1-0.4,0.1-0.8,0.4-1c0.4-0.1,0.8,0.1,1,0.4l41.5,110.7c0.1,0.2,0.1,0.4,0,0.6l-32.1,70.6C415.2,426.5,414.8,426.6,414.4,426.5
			z"/>
		<path class="st1" d="M172,316.1L96.9,282c-0.4-0.2-0.5-0.6-0.4-1l32.1-70.6c0.1-0.2,0.2-0.3,0.4-0.4l110.7-41.5
			c0.4-0.1,0.8,0.1,1,0.4c0.1,0.4-0.1,0.8-0.4,1l-110.5,41.4l-31.7,69.7l74.4,33.9c0.4,0.2,0.5,0.6,0.4,1S172.3,316.3,172,316.1z"/>
		<path class="st1" d="M179.4,304.7L114,274.9c-0.3-0.1-0.4-0.4-0.2-0.7l24-52.8c0.1-0.1,0.2-0.2,0.3-0.3l95-37
			c0.3-0.1,0.5,0,0.6,0.3c0.1,0.3,0,0.5-0.3,0.6l-94.8,36.9l-23.8,52.2l64.9,29.6c0.3,0.1,0.4,0.4,0.2,0.7S179.6,304.8,179.4,304.7
			L179.4,304.7z"/>
		<path class="st1" d="M409.5,409.5l-65.4-29.8c-0.3-0.1-0.4-0.4-0.2-0.7c0.1-0.3,0.4-0.4,0.7-0.2l64.9,29.6l23.8-52.2l-34.4-95.7
			c-0.1-0.3,0-0.5,0.3-0.6c0.3-0.1,0.6,0,0.6,0.3l34.5,95.9c0,0.1,0,0.3,0,0.4l-24,52.8C410.1,409.4,409.8,409.6,409.5,409.5
			L409.5,409.5z"/>
		<path class="st1" d="M341.3,383.1l-163.7-74.5c-0.4-0.2-0.6-0.6-0.4-1L296.7,44.9c0.1-0.2,0.3-0.3,0.5-0.4L409.4,4.7
			c0.4-0.1,0.8,0.1,1,0.4l52.4,116.6c0.1,0.2,0.1,0.4,0,0.6L342.3,382.7C342.1,383.1,341.7,383.2,341.3,383.1L341.3,383.1z
			 M178.9,307.5l162.3,73.9l120-259.3l-52-115.6L298,45.9L178.9,307.5L178.9,307.5z"/>
		<path class="st1" d="M446.9,151L284,76.9c-0.4-0.2-0.5-0.6-0.4-1l6.5-14.2c0.2-0.4,0.6-0.5,1-0.4L454,135.5c0.4,0.2,0.5,0.6,0.4,1
			l-6.5,14.2C447.7,151,447.3,151.2,446.9,151L446.9,151z M285.4,75.9l161.5,73.5l5.8-12.8L291.2,63L285.4,75.9L285.4,75.9z"/>
		<polygon class="st1" points="335.6,397.4 170.7,322.4 177.4,307.5 178.8,308.1 172.6,321.6 334.8,395.5 341,382 342.3,382.6 		"/>
		<path class="st1" d="M297.1,264.3c-32.7-14.9-47.2-53.6-32.3-86.4c14.9-32.7,53.6-47.2,86.4-32.3c32.7,14.9,47.2,53.6,32.3,86.4
			C368.6,264.7,329.8,279.2,297.1,264.3z M350.5,147c-32-14.6-69.8-0.4-84.4,31.6s-0.4,69.8,31.6,84.4c32,14.6,69.8,0.4,84.4-31.6
			S382.5,161.5,350.5,147L350.5,147z"/>
		<path class="st1" d="M305.9,244.9c-22-10-31.8-36.1-21.7-58.1s36.1-31.8,58.1-21.7s31.8,36.1,21.7,58.1S327.9,254.9,305.9,244.9z
			 M341.8,166c-21.5-9.8-47-0.3-56.8,21.3c-9.8,21.5-0.3,47,21.3,56.8s47,0.3,56.8-21.3C372.9,201.2,363.4,175.8,341.8,166z"/>
		<g>
			<path class="st1" d="M212.1,308c-3.9-1.8-5.6-6.4-3.9-10.3c1.8-3.9,6.4-5.6,10.3-3.9c3.9,1.8,5.6,6.4,3.9,10.3
				C220.6,308,216,309.8,212.1,308z M218.1,294.7c-3.4-1.5-7.4,0-9,3.4c-1.5,3.4,0,7.4,3.4,9c3.4,1.5,7.4,0,9-3.4
				C223.1,300.3,221.5,296.3,218.1,294.7z"/>
			<path class="st1" d="M239.6,320.5c-3.9-1.8-5.6-6.4-3.9-10.3c1.8-3.9,6.4-5.6,10.3-3.9c3.9,1.8,5.6,6.4,3.9,10.3
				C248.1,320.5,243.5,322.2,239.6,320.5z M245.6,307.2c-3.4-1.5-7.4,0-9,3.4c-1.5,3.4,0,7.4,3.4,9c3.4,1.5,7.4,0,9-3.4
				C250.5,312.8,249,308.8,245.6,307.2z"/>
			<path class="st1" d="M267,333c-3.9-1.8-5.6-6.4-3.9-10.3s6.4-5.6,10.3-3.9s5.6,6.4,3.9,10.3C275.5,333,270.9,334.7,267,333z
				 M273,319.7c-3.4-1.5-7.4,0-9,3.4c-1.5,3.4,0,7.4,3.4,9c3.4,1.5,7.4,0,9-3.4C277.9,325.3,276.4,321.3,273,319.7z"/>
			<path class="st1" d="M294.4,345.4c-3.9-1.8-5.6-6.4-3.9-10.3c1.8-3.9,6.4-5.6,10.3-3.9c3.9,1.8,5.6,6.4,3.9,10.3
				C303,345.5,298.3,347.2,294.4,345.4z M300.5,332.2c-3.4-1.5-7.4,0-9,3.4s0,7.4,3.4,9s7.4,0,9-3.4
				C305.4,337.8,303.9,333.7,300.5,332.2z"/>
			<path class="st1" d="M321.9,357.9c-3.9-1.8-5.6-6.4-3.9-10.3c1.8-3.9,6.4-5.6,10.3-3.9c3.9,1.8,5.6,6.4,3.9,10.3
				C330.4,358,325.8,359.7,321.9,357.9z M327.9,344.7c-3.4-1.5-7.4,0-9,3.4c-1.5,3.4,0,7.4,3.4,9c3.4,1.5,7.4,0,9-3.4
				S331.3,346.2,327.9,344.7z"/>
		</g>
		<path class="st1" d="M198.9,416.5c-0.4-0.2-0.5-0.6-0.4-1l25-54.9c0.2-0.4,0.6-0.5,1-0.4c0.4,0.2,0.5,0.6,0.4,1l-25,54.9
			C199.7,416.5,199.3,416.6,198.9,416.5z"/>
		<path class="st1" d="M233,396.6c-0.4-0.2-0.5-0.6-0.4-1l9.9-21.8c0.2-0.4,0.6-0.5,1-0.4s0.5,0.6,0.4,1l-9.9,21.8
			C233.9,396.6,233.4,396.8,233,396.6z"/>
		<path class="st1" d="M238.2,435.5c-0.4-0.2-0.5-0.6-0.4-1l25.4-55.8c0.2-0.4,0.6-0.5,1-0.4s0.5,0.6,0.4,1l-25.4,55.8
			C239,435.5,238.6,435.7,238.2,435.5z"/>
		<g>
			<path class="st1" d="M291.3,78.8c-0.1-0.1-0.2-0.2-0.1-0.3l5.4-11.8c0.1-0.1,0.2-0.2,0.3-0.1s0.2,0.2,0.1,0.3l-5.4,11.8
				C291.6,78.8,291.5,78.9,291.3,78.8z"/>
			<path class="st1" d="M296.8,81.3c-0.1-0.1-0.2-0.2-0.1-0.3l5.4-11.8c0.1-0.1,0.2-0.2,0.3-0.1c0.1,0.1,0.2,0.2,0.1,0.3l-5.4,11.8
				C297.1,81.3,297,81.4,296.8,81.3z"/>
			<path class="st1" d="M302.3,83.8c-0.1-0.1-0.2-0.2-0.1-0.3l5.4-11.8c0.1-0.1,0.2-0.2,0.3-0.1c0.1,0.1,0.2,0.2,0.1,0.3l-5.4,11.8
				C302.6,83.8,302.5,83.9,302.3,83.8z"/>
			<path class="st1" d="M307.8,86.3c-0.1-0.1-0.2-0.2-0.1-0.3l5.4-11.8c0.1-0.1,0.2-0.2,0.3-0.1c0.1,0.1,0.2,0.2,0.1,0.3l-5.4,11.8
				C308.1,86.3,307.9,86.4,307.8,86.3z"/>
			<path class="st1" d="M313.3,88.8c-0.1-0.1-0.2-0.2-0.1-0.3l5.4-11.8c0.1-0.1,0.2-0.2,0.3-0.1c0.1,0.1,0.2,0.2,0.1,0.3l-5.4,11.8
				C313.6,88.8,313.4,88.9,313.3,88.8z"/>
			<path class="st1" d="M318.8,91.3c-0.1-0.1-0.2-0.2-0.1-0.3l5.4-11.8c0.1-0.1,0.2-0.2,0.3-0.1c0.1,0.1,0.2,0.2,0.1,0.3l-5.4,11.8
				C319.1,91.3,318.9,91.4,318.8,91.3z"/>
			<path class="st1" d="M324.3,93.8c-0.1-0.1-0.2-0.2-0.1-0.3l5.4-11.8c0.1-0.1,0.2-0.2,0.3-0.1s0.2,0.2,0.1,0.3l-5.4,11.8
				C324.6,93.8,324.4,93.9,324.3,93.8z"/>
			<path class="st1" d="M329.8,96.3c-0.1-0.1-0.2-0.2-0.1-0.3l5.4-11.8c0.1-0.1,0.2-0.2,0.3-0.1c0.1,0.1,0.2,0.2,0.1,0.3l-5.4,11.8
				C330.1,96.3,329.9,96.4,329.8,96.3z"/>
			<path class="st1" d="M335.3,98.8c-0.1-0.1-0.2-0.2-0.1-0.3l5.4-11.8c0.1-0.1,0.2-0.2,0.3-0.1c0.1,0.1,0.2,0.2,0.1,0.3l-5.4,11.8
				C335.6,98.8,335.4,98.9,335.3,98.8z"/>
			<path class="st1" d="M340.8,101.3c-0.1-0.1-0.2-0.2-0.1-0.3l5.4-11.8c0.1-0.1,0.2-0.2,0.3-0.1c0.1,0.1,0.2,0.2,0.1,0.3l-5.4,11.8
				C341,101.3,340.9,101.4,340.8,101.3z"/>
			<path class="st1" d="M346.3,103.8c-0.1-0.1-0.2-0.2-0.1-0.3l5.4-11.8c0.1-0.1,0.2-0.2,0.3-0.1c0.1,0.1,0.2,0.2,0.1,0.3l-5.4,11.8
				C346.5,103.8,346.4,103.9,346.3,103.8z"/>
			<path class="st1" d="M351.8,106.3c-0.1-0.1-0.2-0.2-0.1-0.3l5.4-11.8c0.1-0.1,0.2-0.2,0.3-0.1s0.2,0.2,0.1,0.3l-5.4,11.8
				C352,106.3,351.9,106.4,351.8,106.3z"/>
			<path class="st1" d="M357.3,108.8c-0.1-0.1-0.2-0.2-0.1-0.3l5.4-11.8c0.1-0.1,0.2-0.2,0.3-0.1c0.1,0.1,0.2,0.2,0.1,0.3l-5.4,11.8
				C357.5,108.8,357.4,108.9,357.3,108.8z"/>
			<path class="st1" d="M362.7,111.3c-0.1-0.1-0.2-0.2-0.1-0.3l5.4-11.8c0.1-0.1,0.2-0.2,0.3-0.1c0.1,0.1,0.2,0.2,0.1,0.3l-5.4,11.8
				C363,111.3,362.9,111.4,362.7,111.3z"/>
			<path class="st1" d="M368.2,113.8c-0.1-0.1-0.2-0.2-0.1-0.3l5.4-11.8c0.1-0.1,0.2-0.2,0.3-0.1s0.2,0.2,0.1,0.3l-5.4,11.8
				C368.5,113.8,368.4,113.9,368.2,113.8z"/>
			<path class="st1" d="M373.7,116.3c-0.1-0.1-0.2-0.2-0.1-0.3l5.4-11.8c0.1-0.1,0.2-0.2,0.3-0.1c0.1,0.1,0.2,0.2,0.1,0.3l-5.4,11.8
				C374,116.3,373.9,116.4,373.7,116.3z"/>
			<path class="st1" d="M379.2,118.8c-0.1-0.1-0.2-0.2-0.1-0.3l5.4-11.8c0.1-0.1,0.2-0.2,0.3-0.1c0.1,0.1,0.2,0.2,0.1,0.3l-5.4,11.8
				C379.5,118.8,379.3,118.9,379.2,118.8z"/>
			<path class="st1" d="M384.7,121.3c-0.1-0.1-0.2-0.2-0.1-0.3l5.4-11.8c0.1-0.1,0.2-0.2,0.3-0.1c0.1,0.1,0.2,0.2,0.1,0.3l-5.4,11.8
				C385,121.3,384.8,121.4,384.7,121.3z"/>
			<path class="st1" d="M390.2,123.8c-0.1-0.1-0.2-0.2-0.1-0.3l5.4-11.8c0.1-0.1,0.2-0.2,0.3-0.1c0.1,0.1,0.2,0.2,0.1,0.3l-5.4,11.8
				C390.5,123.8,390.3,123.9,390.2,123.8z"/>
			<path class="st1" d="M395.7,126.3c-0.1-0.1-0.2-0.2-0.1-0.3l5.4-11.8c0.1-0.1,0.2-0.2,0.3-0.1s0.2,0.2,0.1,0.3l-5.4,11.8
				C396,126.3,395.8,126.4,395.7,126.3z"/>
			<path class="st1" d="M401.2,128.8c-0.1-0.1-0.2-0.2-0.1-0.3l5.4-11.8c0.1-0.1,0.2-0.2,0.3-0.1c0.1,0.1,0.2,0.2,0.1,0.3l-5.4,11.8
				C401.5,128.8,401.3,128.9,401.2,128.8z"/>
			<path class="st1" d="M406.7,131.3c-0.1-0.1-0.2-0.2-0.1-0.3l5.4-11.8c0.1-0.1,0.2-0.2,0.3-0.1c0.1,0.1,0.2,0.2,0.1,0.3l-5.4,11.8
				C407,131.3,406.8,131.4,406.7,131.3z"/>
			<path class="st1" d="M412.2,133.8c-0.1-0.1-0.2-0.2-0.1-0.3l5.4-11.8c0.1-0.1,0.2-0.2,0.3-0.1s0.2,0.2,0.1,0.3l-5.4,11.8
				C412.4,133.8,412.3,133.9,412.2,133.8z"/>
			<path class="st1" d="M417.7,136.3c-0.1-0.1-0.2-0.2-0.1-0.3l5.4-11.8c0.1-0.1,0.2-0.2,0.3-0.1c0.1,0.1,0.2,0.2,0.1,0.3l-5.4,11.8
				C417.9,136.3,417.8,136.4,417.7,136.3z"/>
			<path class="st1" d="M423.2,138.8c-0.1-0.1-0.2-0.2-0.1-0.3l5.4-11.8c0.1-0.1,0.2-0.2,0.3-0.1c0.1,0.1,0.2,0.2,0.1,0.3l-5.4,11.8
				C423.4,138.8,423.3,138.9,423.2,138.8z"/>
			<path class="st1" d="M428.7,141.3c-0.1-0.1-0.2-0.2-0.1-0.3l5.4-11.8c0.1-0.1,0.2-0.2,0.3-0.1s0.2,0.2,0.1,0.3l-5.4,11.8
				C428.9,141.3,428.8,141.4,428.7,141.3z"/>
			<path class="st1" d="M434.1,143.8c-0.1-0.1-0.2-0.2-0.1-0.3l5.4-11.8c0.1-0.1,0.2-0.2,0.3-0.1s0.2,0.2,0.1,0.3l-5.4,11.8
				C434.4,143.8,434.3,143.9,434.1,143.8z"/>
			<path class="st1" d="M439.6,146.3c-0.1-0.1-0.2-0.2-0.1-0.3l5.4-11.8c0.1-0.1,0.2-0.2,0.3-0.1s0.2,0.2,0.1,0.3l-5.4,11.8
				C439.9,146.3,439.8,146.4,439.6,146.3z"/>
		</g>
		<path class="st1" d="M359.8,342.6L198.1,269c-0.3-0.1-0.4-0.4-0.2-0.7s0.4-0.4,0.7-0.2l161.6,73.6c0.3,0.1,0.4,0.4,0.2,0.7
			C360.3,342.6,360,342.7,359.8,342.6L359.8,342.6z"/>
		<path class="st1" d="M365,331.1l-161.6-73.6c-0.3-0.1-0.4-0.4-0.2-0.7s0.4-0.4,0.7-0.2l161.6,73.6c0.3,0.1,0.4,0.4,0.2,0.7
			C365.5,331.1,365.3,331.2,365,331.1L365,331.1z"/>
		<path class="st1" d="M430,55l-68-31c-0.3-0.1-0.4-0.4-0.2-0.7c0.1-0.3,0.4-0.4,0.7-0.2l68,31c0.3,0.1,0.4,0.4,0.2,0.7
			C430.6,55.1,430.3,55.2,430,55z"/>
	</g>
</g>
</svg>
